<?xml version="1.0" encoding="UTF-8" standalone="no"?>
<svg
   xmlns:dc="http://purl.org/dc/elements/1.1/"
   xmlns:cc="http://creativecommons.org/ns#"
   xmlns:rdf="http://www.w3.org/1999/02/22-rdf-syntax-ns#"
   xmlns:svg="http://www.w3.org/2000/svg"
   xmlns="http://www.w3.org/2000/svg"
   xmlns:sodipodi="http://sodipodi.sourceforge.net/DTD/sodipodi-0.dtd"
   xmlns:inkscape="http://www.inkscape.org/namespaces/inkscape"
   width="200"
   height="200"
   viewBox="0 0 200 200"
   version="1.1"
   id="svg199"
   sodipodi:docname="logo.fantom.svg"
   inkscape:version="0.92.4 (5da689c313, 2019-01-14)">
  <metadata
     id="metadata203">
    <rdf:RDF>
      <cc:Work
         rdf:about="">
        <dc:format>image/svg+xml</dc:format>
        <dc:type
           rdf:resource="http://purl.org/dc/dcmitype/StillImage" />
      </cc:Work>
    </rdf:RDF>
  </metadata>
  <sodipodi:namedview
     pagecolor="#ffffff"
     bordercolor="#666666"
     borderopacity="1"
     objecttolerance="10"
     gridtolerance="10"
     guidetolerance="10"
     inkscape:pageopacity="0"
     inkscape:pageshadow="2"
     inkscape:window-width="1920"
     inkscape:window-height="1013"
     id="namedview201"
     showgrid="false"
     inkscape:zoom="2.2564103"
     inkscape:cx="145.92465"
     inkscape:cy="100"
     inkscape:window-x="-9"
     inkscape:window-y="-9"
     inkscape:window-maximized="1"
     inkscape:current-layer="g197" />
  <defs
     id="defs181">
    <linearGradient
       id="fantom-lockup-white-a"
       x1="58.888%"
       x2="40.569%"
       y1="42.016%"
       y2="7.787%">
      <stop
         offset="0%"
         stop-color="#D1D2D4"
         id="stop171" />
      <stop
         offset="100%"
         stop-color="#D1D2D4"
         stop-opacity="0"
         id="stop173" />
    </linearGradient>
    <linearGradient
       id="fantom-lockup-white-b"
       x1="50%"
       x2="50%"
       y1="0%"
       y2="100%">
      <stop
         offset="0%"
         stop-color="#4299E1"
         id="stop176" />
      <stop
         offset="100%"
         stop-color="#2B6CB0"
         id="stop178" />
    </linearGradient>
  </defs>
  <g
     fill="none"
     fill-rule="evenodd"
     id="g197">
    <g
       transform="translate(2.787 2.787)"
       id="g193">
      <path
         fill="#FFF"
         fill-rule="nonzero"
         stroke="#000"
         stroke-width="2.787"
         d="M96.6694629,0 C88.6006643,0.579882329 80.6630305,2.35725325 73.1172665,5.27373654 C62.900697,9.84225755 54.1426729,17.1417968 47.8074435,26.3686827 C46.1067858,28.8379172 44.579828,31.4224195 43.2376143,34.1034963 L42.5345637,35.509826 L41.4799877,35.509826 C36.8311035,35.6049831 32.2343878,34.5161104 28.1220256,32.3455841 L26.0128737,31.6424192 L21.4430445,28.8297598 L20.3884685,28.4781773 C18.2769095,27.3746724 16.0321486,26.5475208 13.7094875,26.0171003 C13.2473132,25.8751911 12.777957,25.757833 12.3033862,25.6655178 C10.6337977,25.5979841 8.96593031,25.8362896 7.38203171,26.3686827 L6.32745575,27.0718476 L5.97593044,27.42343 C5.36686829,27.7348318 4.779643,28.0872243 4.21830384,28.4781773 L3.86677852,28.8297598 L2.10915192,30.9392544 C1.0897,32.2957732 0.370709532,33.853839 -9.99095049e-15,35.509826 L-9.99095049e-15,39.3772328 L0.35152532,40.4319801 L0.703050639,41.8383099 L2.81220256,44.2993869 C3.2473862,44.5238275 3.72871635,44.6441796 4.21830384,44.6509694 L4.56982916,44.6509694 C6.32745575,44.2993869 7.38203171,43.5962221 8.08508235,42.8930572 L8.78813299,41.8383099 L9.49118363,40.0803977 C9.68227965,39.7018217 9.91833473,39.3476815 10.1942343,39.0256504 C10.4044869,38.8654301 10.6429779,38.7461652 10.8972849,38.674068 L11.6003356,38.674068 L13.7094875,39.0256504 C15.5867048,39.6563354 17.2778211,40.7436581 18.6308419,42.1898923 L20.0369432,43.5962221 L20.3884685,44.2993869 C20.9040538,45.0920466 21.3735327,45.9137681 21.7945698,46.760464 L24.9582977,52.7373654 C26.1424677,55.0230888 27.4328016,57.2522095 28.8250762,59.4174317 L32.3403294,62.933256 L33.0433801,63.6364209 C33.7165853,64.1484981 34.4209971,64.6181822 35.152532,65.0427507 L35.8555826,65.3943331 C37.9647345,66.4490804 40.4254118,67.5038277 43.5891396,67.8554101 L46.4013422,67.8554101 C48.1037505,67.6396547 49.7632902,67.1654234 51.3226967,66.4490804 C53.2393537,65.5567139 54.9236931,64.2330893 56.2440512,62.5816736 L57.6501524,60.8237614 L58.0016778,60.1205966 C58.2464986,61.5514757 58.5990266,62.9618169 59.0562537,64.3395858 L60.8138803,68.558575 L61.516931,69.9649048 L62.2199816,71.3712345 C56.4413747,72.5613647 50.5380059,73.033711 44.6437156,72.7775643 C42.0627863,72.7424734 39.4836279,72.6252199 36.9101586,72.4259818 L34.8010067,72.4259818 C32.6854672,71.9864312 30.5761132,71.5176097 28.4735509,71.0196521 L28.1220256,70.6680696 L27.0674496,70.6680696 C26.6020501,70.58939 26.1267479,70.58939 25.6613483,70.6680696 C25.2609047,70.819144 24.9002198,71.0596397 24.6067724,71.3712345 L23.9037217,72.0743994 L23.5521964,72.7775643 C23.3332815,73.4599398 23.2148644,74.1705575 23.2006711,74.8870589 C23.0873547,75.9387617 23.0873547,76.999598 23.2006711,78.0513008 L23.2006711,78.7544657 C24.0014414,80.6948417 24.9412872,82.5748387 26.0128737,84.3797846 C28.749624,89.0542403 32.7777524,92.8388545 37.6132092,95.2788402 L44.6437156,97.7399172 L45.6982916,98.0914996 L48.1589688,98.7946645 L50.619646,99.146247 L55.1894752,100.200994 L57.6501524,100.904159 C57.194524,101.810171 56.6016532,102.640325 55.8925258,103.365236 C55.3495787,103.885297 54.7613771,104.355935 54.1348992,104.771566 C52.9753982,105.539769 51.6501533,106.021754 50.2681207,106.177896 C49.6848032,106.255334 49.0938116,106.255334 48.5104941,106.177896 L47.4559182,105.826313 L46.0498169,105.474731 L45.6982916,105.474731 L45.6982916,105.123148 C37.4932623,102.876567 28.8055652,103.121331 20.7399939,105.826313 L17.576266,106.881061 C15.5115266,107.655462 13.5129962,108.596099 11.6003356,109.69372 L10.8972849,110.045302 C9.28550698,111.097442 7.75765832,112.272901 6.32745575,113.561127 L5.62440512,114.264292 L5.2728798,114.615874 L4.56982916,115.319039 L4.21830384,116.022204 L3.5152532,116.373786 L2.46067724,117.780116 L0.35152532,120.944358 C2.55722896,119.419123 4.91296149,118.12326 7.38203171,117.076951 C11.4215183,115.574317 15.7409192,114.974303 20.0369432,115.319039 L16.1701647,118.834863 C13.0064368,121.999105 12.3033862,125.163347 11.9518609,127.976007 L11.9518609,136.062403 L11.6003356,138.875062 L11.6003356,139.578227 L11.2488102,139.92981 L11.2488102,140.281392 L10.1942343,142.390887 L10.1942343,143.094051 L9.84270895,143.445634 L9.49118363,143.797216 C8.6874201,144.963591 7.74288894,146.026361 6.67898107,146.961458 C7.83595259,147.196433 9.01365108,147.314222 10.1942343,147.313041 C11.2787359,147.243092 12.3459109,147.005904 13.3579621,146.609876 C14.1087732,146.363277 14.8193802,146.007916 15.4671141,145.555129 L17.9277913,142.742469 L18.2793166,142.039304 L20.7399939,137.468732 L21.4430445,136.413985 L22.8491458,133.601326 L23.2006711,132.898161 L24.6067724,131.140249 L24.9582977,130.788666 C25.9814346,129.774154 27.1702715,128.941833 28.4735509,128.327589 C29.2473153,127.876191 30.0737762,127.521936 30.9342281,127.272842 C31.1864529,128.188525 31.3048551,129.135897 31.2857535,130.085501 L30.9342281,131.843414 L30.5827028,132.194996 C30.3237291,132.940756 29.9692542,133.649822 29.5281269,134.304491 L29.1766015,135.007655 L28.1220256,136.062403 L27.7705003,136.413985 L27.0674496,136.765568 L28.4735509,137.11715 C28.8250131,137.126569 29.1766646,137.126569 29.5281269,137.11715 L30.9342281,137.11715 L31.2857535,136.765568 L32.6918547,136.765568 L33.3949054,136.413985 L33.7464307,136.413985 C23.9037217,144.500381 37.6132092,151.53203 34.8010067,161.727921 C44.6437156,162.079503 40.4254118,142.390887 54.8379499,151.53203 C53.0803233,161.727921 67.4928614,165.595327 56.9471018,174.033306 C66.7898107,176.845965 73.4687918,173.681723 76.984045,164.188998 C73.1172665,177.54913 92.4511591,197.237747 99.1301402,193.721922 C94.9118363,185.987109 94.2087857,180.010207 95.9664123,174.384888 C101.590817,180.010207 109.324374,183.877614 106.160647,191.612428 C114.94878,187.393438 107.215223,182.119702 114.245729,175.439636 C114.597254,184.229196 122.330811,190.55768 130.064368,193.018757 C120.573185,174.736471 124.791489,157.157349 136.391824,144.148799 L137.4464,143.445634 L138.500976,142.742469 L139.555552,142.039304 L140.610128,141.336139 L141.313179,140.632974 L142.367754,139.92981 L143.42233,139.226645 L145.179957,137.468732 L146.234533,136.765568 L146.937584,136.062403 L147.99216,135.007655 L148.69521,134.304491 L149.398261,133.249743 L150.452837,132.546578 L151.155887,131.491831 L151.858938,130.788666 L151.858938,130.437084 L152.913514,129.733919 L153.616565,128.679172 L155.725717,125.51493 L156.428767,124.460182 C156.911351,123.766374 157.380143,123.063071 157.834869,122.350688 L158.186394,121.29594 C159.65971,118.692617 160.951703,115.990737 162.053172,113.209544 L162.404698,113.209544 L162.756223,111.803215 C163.00571,110.987257 163.2401,110.166758 163.459274,109.342138 L164.162324,107.935808 L164.51385,106.529478 L165.2169,104.068401 L165.568426,102.662071 L165.919951,99.8494118 C166.448632,98.1080479 166.917607,96.3491074 167.326052,94.5756753 L167.677578,92.8177631 L167.677578,92.4661807 C168.158129,89.7891234 168.510059,87.0905592 168.732153,84.3797846 C169.407915,77.3572649 169.289995,70.2809351 168.380628,63.2848385 L168.380628,62.933256 C167.677578,54.4952776 165.2169,45.7057167 160.647071,37.2677382 C160.099504,35.9615279 159.513372,34.6718267 158.889445,33.4003314 L158.537919,33.4003314 L156.780293,29.8845071 L156.428767,29.8845071 L156.428767,29.5329246 L155.374191,28.1265949 L155.022666,27.7750124 L154.671141,27.0718476 L154.319615,26.7202651 L153.96809,26.3686827 L153.616565,26.0171003 L153.616565,25.6655178 L152.913514,24.6107705 L151.507413,22.8528583 L150.804362,22.1496935 L150.452837,21.798111 L150.101312,21.4465286 L149.398261,20.3917813 L148.69521,20.0401989 L148.343685,19.6886164 C147.658086,18.9682113 146.954821,18.2648324 146.234533,17.5791218 L145.531482,16.8759569 L145.179957,16.8759569 L143.773856,15.4696272 L143.42233,15.1180447 L143.070805,14.7664623 L142.71928,14.4148799 L142.016229,14.0632974 L141.664704,14.0632974 L140.961653,13.3601326 L140.258603,12.6569677 L139.907077,12.6569677 C139.327065,12.295702 138.741109,11.9440713 138.149451,11.6022204 L137.797925,11.250638 L137.094875,10.8990555 L137.094875,10.5474731 L136.391824,10.1958906 L136.040299,10.1958906 L135.337248,9.49272577 L134.985723,9.49272577 L134.282672,9.14114334 L133.931147,8.7895609 L133.228096,8.43797846 L132.876571,8.43797846 C132.296212,8.0772811 131.710265,7.72565593 131.118944,7.38323116 L130.767419,7.38323116 L129.712843,6.68006628 L129.361318,6.68006628 L128.658267,6.32848385 L128.306742,6.32848385 L127.603691,5.97690141 L127.252166,5.62531898 L126.19759,5.27373654 L125.143014,4.9221541 L123.736913,4.57057167 L123.736913,4.21898923 L122.330811,3.8674068 C121.51473,3.61874739 120.694379,3.38432355 119.870134,3.16424192 C119.05386,2.91623349 118.233521,2.68181281 117.409457,2.46107705 L114.597254,2.10949462 L114.597254,1.75791218 L113.191153,1.75791218 L112.839628,1.40632974 L110.37895,1.05474731 L108.972849,1.05474731 L106.160647,0.703164872 L105.809121,0.703164872 L104.40302,0.351582436 L102.996919,0.351582436 C101.359498,0.195235166 99.7185793,0.0780076231 98.0755642,0 L96.6694629,0 L96.6694629,0 Z"
         id="path183" />
      <path
         fill="url(#fantom-lockup-white-a)"
         fill-rule="nonzero"
         d="M96.6694629,-3.99702953e-14 C88.6006643,0.579882329 80.6630305,2.35725325 73.1172665,5.27373654 C62.900697,9.84225755 54.1426729,17.1417968 47.8074435,26.3686827 C46.1067858,28.8379172 44.579828,31.4224195 43.2376143,34.1034963 L42.5345637,35.509826 L41.4799877,35.509826 C36.8311035,35.6049831 32.2343878,34.5161104 28.1220256,32.3455841 L26.0128737,31.6424192 L21.4430445,28.8297598 L20.3884685,28.4781773 C18.2769095,27.3746724 16.0321486,26.5475208 13.7094875,26.0171003 C13.2473132,25.8751911 12.777957,25.757833 12.3033862,25.6655178 C10.6337977,25.5979841 8.96593031,25.8362896 7.38203171,26.3686827 L6.32745575,27.0718476 L5.97593044,27.42343 C5.36686829,27.7348318 4.779643,28.0872243 4.21830384,28.4781773 L3.86677852,28.8297598 L2.10915192,30.9392544 C1.0897,32.2957732 0.370709532,33.853839 0,35.509826 L0,39.3772328 L0.35152532,40.4319801 L0.703050639,41.8383099 L2.81220256,44.2993869 C3.2473862,44.5238275 3.72871635,44.6441796 4.21830384,44.6509694 L4.56982916,44.6509694 C6.32745575,44.2993869 7.38203171,43.5962221 8.08508235,42.8930572 L8.78813299,41.8383099 L9.49118363,40.0803977 C9.68227965,39.7018217 9.91833473,39.3476815 10.1942343,39.0256504 C10.4044869,38.8654301 10.6429779,38.7461652 10.8972849,38.674068 L11.6003356,38.674068 L13.7094875,39.0256504 C15.5867048,39.6563354 17.2778211,40.7436581 18.6308419,42.1898923 L20.0369432,43.5962221 L20.3884685,44.2993869 C20.9040538,45.0920466 21.3735327,45.9137681 21.7945698,46.760464 L24.9582977,52.7373654 C26.1420165,55.0233361 27.4323625,57.2524777 28.8250762,59.4174317 L32.3403294,62.933256 L33.0433801,63.6364209 C33.7165853,64.1484981 34.4209971,64.6181822 35.152532,65.0427507 L35.8555826,65.3943331 C37.9647345,66.4490804 40.4254118,67.5038277 43.5891396,67.8554101 L46.4013422,67.8554101 C48.1037505,67.6396547 49.7632902,67.1654234 51.3226967,66.4490804 C53.2393537,65.5567139 54.9236931,64.2330893 56.2440512,62.5816736 L57.6501524,60.8237614 L58.0016778,60.1205966 C58.2464986,61.5514757 58.5990266,62.9618169 59.0562537,64.3395858 L60.8138803,68.558575 L61.516931,69.9649048 L62.2199816,71.3712345 C56.4413747,72.5613647 50.5380059,73.033711 44.6437156,72.7775643 C42.0627863,72.7424734 39.4836279,72.6252199 36.9101586,72.4259818 L34.8010067,72.4259818 C32.6854672,71.9864312 30.5761132,71.5176097 28.4735509,71.0196521 L28.1220256,70.6680696 L27.0674496,70.6680696 C26.6020501,70.58939 26.1267479,70.58939 25.6613483,70.6680696 C25.2609047,70.819144 24.9002198,71.0596397 24.6067724,71.3712345 L23.9037217,72.0743994 L23.5521964,72.7775643 C23.3332815,73.4599398 23.2148644,74.1705575 23.2006711,74.8870589 C23.0873547,75.9387617 23.0873547,76.999598 23.2006711,78.0513008 L23.2006711,78.7544657 C24.0014414,80.6948417 24.9412872,82.5748387 26.0128737,84.3797846 C28.749624,89.0542403 32.7777524,92.8388545 37.6132092,95.2788402 L44.6437156,97.7399172 L45.6982916,98.0914996 L48.1589688,98.7946645 L50.619646,99.146247 L55.1894752,100.200994 L57.6501524,100.904159 C57.194524,101.810171 56.6016532,102.640325 55.8925258,103.365236 C55.3495787,103.885297 54.7613771,104.355935 54.1348992,104.771566 C52.9753982,105.539769 51.6501533,106.021754 50.2681207,106.177896 C49.6848032,106.255334 49.0938116,106.255334 48.5104941,106.177896 L47.4559182,105.826313 L46.0498169,105.474731 L45.6982916,105.474731 L45.6982916,105.123148 C37.4932623,102.876567 28.8055652,103.121331 20.7399939,105.826313 L17.576266,106.881061 C15.5115266,107.655462 13.5129962,108.596099 11.6003356,109.69372 L10.8972849,110.045302 C9.28550698,111.097442 7.75765832,112.272901 6.32745575,113.561127 L5.62440512,114.264292 L5.2728798,114.615874 L4.56982916,115.319039 L4.21830384,116.022204 L3.5152532,116.373786 L2.46067724,117.780116 L0.35152532,120.944358 C2.55722896,119.419123 4.91296149,118.12326 7.38203171,117.076951 C11.4215183,115.574317 15.7409192,114.974303 20.0369432,115.319039 L16.1701647,118.834863 C13.0064368,121.999105 12.3033862,125.163347 11.9518609,127.976007 L11.9518609,136.062403 L11.6003356,138.875062 L11.6003356,139.578227 L11.2488102,139.92981 L11.2488102,140.281392 L10.1942343,142.390887 L10.1942343,143.094051 L9.84270895,143.445634 L9.49118363,143.797216 C8.6874201,144.963591 7.74288894,146.026361 6.67898107,146.961458 C7.83595259,147.196433 9.01365108,147.314222 10.1942343,147.313041 C11.2787359,147.243092 12.3459109,147.005904 13.3579621,146.609876 C14.1087732,146.363277 14.8193802,146.007916 15.4671141,145.555129 L17.9277913,142.742469 L18.2793166,142.039304 L20.7399939,137.468732 L21.4430445,136.413985 L22.8491458,133.601326 L23.2006711,132.898161 L24.6067724,131.140249 L24.9582977,130.788666 C25.9814346,129.774154 27.1702715,128.941833 28.4735509,128.327589 C29.2473153,127.876191 30.0737762,127.521936 30.9342281,127.272842 C31.1864529,128.188525 31.3048551,129.135897 31.2857535,130.085501 L30.9342281,131.843414 L30.5827028,132.194996 C30.3237291,132.940756 29.9692542,133.649822 29.5281269,134.304491 L29.1766015,135.007655 L28.1220256,136.062403 L27.7705003,136.413985 L27.0674496,136.765568 L28.4735509,137.11715 C28.8250131,137.126569 29.1766646,137.126569 29.5281269,137.11715 L30.9342281,137.11715 L31.2857535,136.765568 L32.6918547,136.765568 L33.3949054,136.413985 L33.7464307,136.413985 C23.9037217,144.500381 37.6132092,151.53203 34.8010067,161.727921 C44.6437156,162.079503 40.4254118,142.390887 54.8379499,151.53203 C53.0803233,161.727921 67.4928614,165.595327 56.9471018,174.033306 C66.7898107,176.845965 73.4687918,173.681723 76.984045,164.188998 C73.1172665,177.54913 92.4511591,197.237747 99.1301402,193.721922 C94.9118363,185.987109 94.2087857,180.010207 95.9664123,174.384888 C101.590817,180.010207 109.324374,183.877614 106.160647,191.612428 C114.94878,187.393438 107.215223,182.119702 114.245729,175.439636 C114.597254,184.229196 122.330811,190.55768 130.064368,193.018757 C119.870134,174.736471 123.385387,157.157349 136.391824,144.148799 L137.4464,143.445634 L138.500976,142.742469 L139.555552,142.039304 L140.610128,141.336139 L141.313179,140.632974 L142.367754,139.92981 L143.42233,139.226645 L145.179957,137.468732 L146.234533,136.765568 L146.937584,136.062403 L147.99216,135.007655 L148.69521,134.304491 L149.398261,133.249743 L150.452837,132.546578 L151.155887,131.491831 L151.858938,130.788666 L151.858938,130.437084 L152.913514,129.733919 L153.616565,128.679172 L155.725717,125.51493 L156.428767,124.460182 C156.911275,123.766323 157.380067,123.063021 157.834869,122.350688 L158.186394,121.29594 C159.65971,118.692617 160.951703,115.990737 162.053172,113.209544 L162.404698,113.209544 L162.756223,111.803215 C163.005787,110.98728 163.240178,110.166779 163.459274,109.342138 L164.162324,107.935808 L164.51385,106.529478 L165.2169,104.068401 L165.568426,102.662071 L165.568426,101.607324 C178.926388,94.9272577 187.714521,84.7313671 187.01147,66.4490804 C187.362995,63.2848385 184.550793,58.0111019 180.684014,58.0111019 C179.277913,58.0111019 177.871812,58.3626844 176.817236,60.1205966 L168.732153,66.4490804 L168.732153,67.8554101 L168.380628,63.2848385 L168.380628,62.933256 C167.677578,54.4952776 165.2169,45.7057167 160.647071,37.2677382 C160.099317,35.9616098 159.513187,34.6719142 158.889445,33.4003314 L158.537919,33.4003314 L156.780293,29.8845071 L156.428767,29.8845071 L156.428767,29.5329246 L155.374191,28.1265949 L155.022666,27.7750124 L154.671141,27.0718476 L154.319615,26.7202651 L153.96809,26.3686827 L153.616565,26.0171003 L153.616565,25.6655178 L152.913514,24.6107705 L151.507413,22.8528583 L150.804362,22.1496935 L150.452837,21.798111 L150.101312,21.4465286 L149.398261,20.3917813 L148.69521,20.0401989 L148.343685,19.6886164 C147.658086,18.9682113 146.954821,18.2648324 146.234533,17.5791218 L145.531482,16.8759569 L145.179957,16.8759569 L143.773856,15.4696272 L143.42233,15.1180447 L143.070805,14.7664623 L142.71928,14.4148799 L142.016229,14.0632974 L141.664704,14.0632974 L140.961653,13.3601326 L140.258603,12.6569677 L139.907077,12.6569677 C139.327065,12.295702 138.741109,11.9440713 138.149451,11.6022204 L137.797925,11.250638 L137.094875,10.8990555 L137.094875,10.5474731 L136.391824,10.1958906 L136.040299,10.1958906 L135.337248,9.49272577 L134.985723,9.49272577 L134.282672,9.14114334 L133.931147,8.7895609 L133.228096,8.43797846 L132.876571,8.43797846 C132.296182,8.07732948 131.710236,7.72570476 131.118944,7.38323116 L130.767419,7.38323116 L129.712843,6.68006628 L129.361318,6.68006628 L128.658267,6.32848385 L128.306742,6.32848385 L127.603691,5.97690141 L127.252166,5.62531898 L126.19759,5.27373654 L125.143014,4.9221541 L123.736913,4.57057167 L123.736913,4.21898923 L122.330811,3.8674068 C121.51471,3.61881527 120.694361,3.38439177 119.870134,3.16424192 C119.05386,2.91623349 118.233521,2.68181281 117.409457,2.46107705 L114.597254,2.10949462 L114.597254,1.75791218 L113.191153,1.75791218 L112.839628,1.40632974 L110.37895,1.05474731 L108.972849,1.05474731 L106.160647,0.703164872 L105.809121,0.703164872 L104.40302,0.351582436 L102.996919,0.351582436 C101.359498,0.195235166 99.7185793,0.0780076231 98.0755642,-3.99702953e-14 L96.6694629,-3.99702953e-14 L96.6694629,-3.99702953e-14 Z M166.623002,96.6851699 L166.271476,98.4430821 L165.919951,99.8494118 C166.175695,98.7995336 166.410093,97.7445687 166.623002,96.6851699 L166.623002,96.6851699 Z"
         id="path185" />
      <path
         fill="url(#fantom-lockup-white-b)"
         fill-rule="nonzero"
         stroke="#025"
         stroke-linecap="round"
         stroke-linejoin="round"
         stroke-width="2.787"
         d="M132.17352,82.6218725 C113.191153,81.5671252 118.815558,59.0658492 99.1301402,51.3310357 C81.2023489,62.933256 81.9053995,114.264292 132.525046,87.1924441 C172.598932,107.935808 171.544356,62.933256 159.94402,52.0342005 C145.883008,57.6595195 147.289109,80.5123778 132.17352,82.6218725 Z"
         id="path187" />
      <path
         stroke="#000"
         stroke-linecap="round"
         stroke-linejoin="round"
         stroke-width="2.787"
         d="M96.6694629,0 C88.6006643,0.579882329 80.6630305,2.35725325 73.1172665,5.27373654 C62.900697,9.84225755 54.1426729,17.1417968 47.8074435,26.3686827 C46.1067858,28.8379172 44.579828,31.4224195 43.2376143,34.1034963 L42.5345637,35.509826 L41.4799877,35.509826 C36.8311035,35.6049831 32.2343878,34.5161104 28.1220256,32.3455841 L26.0128737,31.6424192 L21.4430445,28.8297598 L20.3884685,28.4781773 C18.2769095,27.3746724 16.0321486,26.5475208 13.7094875,26.0171003 C13.2473132,25.8751911 12.777957,25.757833 12.3033862,25.6655178 C10.6337977,25.5979841 8.96593031,25.8362896 7.38203171,26.3686827 L6.32745575,27.0718476 L5.97593044,27.42343 C5.36686829,27.7348318 4.779643,28.0872243 4.21830384,28.4781773 L3.86677852,28.8297598 L2.10915192,30.9392544 C1.0897,32.2957732 0.370709532,33.853839 -9.99095049e-15,35.509826 L-9.99095049e-15,39.3772328 L0.35152532,40.4319801 L0.703050639,41.8383099 L2.81220256,44.2993869 C3.2473862,44.5238275 3.72871635,44.6441796 4.21830384,44.6509694 L4.56982916,44.6509694 C6.32745575,44.2993869 7.38203171,43.5962221 8.08508235,42.8930572 L8.78813299,41.8383099 L9.49118363,40.0803977 C9.68227965,39.7018217 9.91833473,39.3476815 10.1942343,39.0256504 C10.4044869,38.8654301 10.6429779,38.7461652 10.8972849,38.674068 L11.6003356,38.674068 L13.7094875,39.0256504 C15.5867048,39.6563354 17.2778211,40.7436581 18.6308419,42.1898923 L20.0369432,43.5962221 L20.3884685,44.2993869 C20.9040538,45.0920466 21.3735327,45.9137681 21.7945698,46.760464 L24.9582977,52.7373654 C26.1424677,55.0230888 27.4328016,57.2522095 28.8250762,59.4174317 L32.3403294,62.933256 L33.0433801,63.6364209 C33.7165853,64.1484981 34.4209971,64.6181822 35.152532,65.0427507 L35.8555826,65.3943331 C37.9647345,66.4490804 40.4254118,67.5038277 43.5891396,67.8554101 L46.4013422,67.8554101 C48.1037505,67.6396547 49.7632902,67.1654234 51.3226967,66.4490804 C53.2393537,65.5567139 54.9236931,64.2330893 56.2440512,62.5816736 L57.6501524,60.8237614 L58.0016778,60.1205966 C58.2464986,61.5514757 58.5990266,62.9618169 59.0562537,64.3395858 L60.8138803,68.558575 L61.516931,69.9649048 L62.2199816,71.3712345 C56.4413747,72.5613647 50.5380059,73.033711 44.6437156,72.7775643 C42.0627863,72.7424734 39.4836279,72.6252199 36.9101586,72.4259818 L34.8010067,72.4259818 C32.6854672,71.9864312 30.5761132,71.5176097 28.4735509,71.0196521 L28.1220256,70.6680696 L27.0674496,70.6680696 C26.6020501,70.58939 26.1267479,70.58939 25.6613483,70.6680696 C25.2609047,70.819144 24.9002198,71.0596397 24.6067724,71.3712345 L23.9037217,72.0743994 L23.5521964,72.7775643 C23.3332815,73.4599398 23.2148644,74.1705575 23.2006711,74.8870589 C23.0873547,75.9387617 23.0873547,76.999598 23.2006711,78.0513008 L23.2006711,78.7544657 C24.0014414,80.6948417 24.9412872,82.5748387 26.0128737,84.3797846 C28.749624,89.0542403 32.7777524,92.8388545 37.6132092,95.2788402 L44.6437156,97.7399172 L45.6982916,98.0914996 L48.1589688,98.7946645 L50.619646,99.146247 L55.1894752,100.200994 L57.6501524,100.904159 C57.194524,101.810171 56.6016532,102.640325 55.8925258,103.365236 C55.3495787,103.885297 54.7613771,104.355935 54.1348992,104.771566 C52.9753982,105.539769 51.6501533,106.021754 50.2681207,106.177896 C49.6848032,106.255334 49.0938116,106.255334 48.5104941,106.177896 L47.4559182,105.826313 L46.0498169,105.474731 L45.6982916,105.474731 L45.6982916,105.123148 C37.4932623,102.876567 28.8055652,103.121331 20.7399939,105.826313 L17.576266,106.881061 C15.5115266,107.655462 13.5129962,108.596099 11.6003356,109.69372 L10.8972849,110.045302 C9.28550698,111.097442 7.75765832,112.272901 6.32745575,113.561127 L5.62440512,114.264292 L5.2728798,114.615874 L4.56982916,115.319039 L4.21830384,116.022204 L3.5152532,116.373786 L2.46067724,117.780116 L0.35152532,120.944358 C2.55722896,119.419123 4.91296149,118.12326 7.38203171,117.076951 C11.4215183,115.574317 15.7409192,114.974303 20.0369432,115.319039 L16.1701647,118.834863 C13.0064368,121.999105 12.3033862,125.163347 11.9518609,127.976007 L11.9518609,136.062403 L11.6003356,138.875062 L11.6003356,139.578227 L11.2488102,139.92981 L11.2488102,140.281392 L10.1942343,142.390887 L10.1942343,143.094051 L9.84270895,143.445634 L9.49118363,143.797216 C8.6874201,144.963591 7.74288894,146.026361 6.67898107,146.961458 C7.83595259,147.196433 9.01365108,147.314222 10.1942343,147.313041 C11.2787359,147.243092 12.3459109,147.005904 13.3579621,146.609876 C14.1087732,146.363277 14.8193802,146.007916 15.4671141,145.555129 L17.9277913,142.742469 L18.2793166,142.039304 L20.7399939,137.468732 L21.4430445,136.413985 L22.8491458,133.601326 L23.2006711,132.898161 L24.6067724,131.140249 L24.9582977,130.788666 C25.9814346,129.774154 27.1702715,128.941833 28.4735509,128.327589 C29.2473153,127.876191 30.0737762,127.521936 30.9342281,127.272842 C31.1864529,128.188525 31.3048551,129.135897 31.2857535,130.085501 L30.9342281,131.843414 L30.5827028,132.194996 C30.3237291,132.940756 29.9692542,133.649822 29.5281269,134.304491 L29.1766015,135.007655 L28.1220256,136.062403 L27.7705003,136.413985 L27.0674496,136.765568 L28.4735509,137.11715 C28.8250131,137.126569 29.1766646,137.126569 29.5281269,137.11715 L30.9342281,137.11715 L31.2857535,136.765568 L32.6918547,136.765568 L33.3949054,136.413985 L33.7464307,136.413985 C23.9037217,144.500381 37.6132092,151.53203 34.8010067,161.727921 C44.6437156,162.079503 40.4254118,142.390887 54.8379499,151.53203 C53.0803233,161.727921 67.4928614,165.595327 56.9471018,174.033306 C66.7898107,176.845965 73.4687918,173.681723 76.984045,164.188998 C73.1172665,177.54913 92.4511591,197.237747 99.1301402,193.721922 C94.9118363,185.987109 94.2087857,180.010207 95.9664123,174.384888 C101.590817,180.010207 109.324374,183.877614 106.160647,191.612428 C114.94878,187.393438 107.215223,182.119702 114.245729,175.439636 C114.597254,184.229196 122.330811,190.55768 130.064368,193.018757 C118.464033,172.626976 123.033862,152.93836 140.610128,141.336139 L141.313179,140.632974 L142.367754,139.92981 L143.42233,139.226645 L145.179957,137.468732 L146.234533,136.765568 L146.937584,136.062403 L147.99216,135.007655 L148.69521,134.304491 L149.398261,133.249743 L150.452837,132.546578 L151.155887,131.491831 L151.858938,130.788666 L151.858938,130.437084 L152.913514,129.733919 L153.616565,128.679172 L155.725717,125.51493 L156.428767,124.460182 C156.911351,123.766374 157.380143,123.063071 157.834869,122.350688 L158.186394,121.29594 C159.65971,118.692617 160.951703,115.990737 162.053172,113.209544 L162.404698,113.209544 L162.756223,111.803215 C163.00571,110.987257 163.2401,110.166758 163.459274,109.342138 L164.162324,107.935808 L164.51385,106.529478 L165.2169,104.068401 L165.568426,102.662071 L165.919951,99.8494118 C166.448632,98.1080479 166.917607,96.3491074 167.326052,94.5756753 L167.677578,92.8177631 L167.677578,92.4661807 C168.158129,89.7891234 168.510059,87.0905592 168.732153,84.3797846 C169.407915,77.3572649 169.289995,70.2809351 168.380628,63.2848385 L168.380628,62.933256 C167.677578,54.4952776 165.2169,45.7057167 160.647071,37.2677382 C160.099504,35.9615279 159.513372,34.6718267 158.889445,33.4003314 L158.537919,33.4003314 L156.780293,29.8845071 L156.428767,29.8845071 L156.428767,29.5329246 L155.374191,28.1265949 L155.022666,27.7750124 L154.671141,27.0718476 L154.319615,26.7202651 L153.96809,26.3686827 L153.616565,26.0171003 L153.616565,25.6655178 L152.913514,24.6107705 L151.507413,22.8528583 L150.804362,22.1496935 L150.452837,21.798111 L150.101312,21.4465286 L149.398261,20.3917813 L148.69521,20.0401989 L148.343685,19.6886164 C147.658086,18.9682113 146.954821,18.2648324 146.234533,17.5791218 L145.531482,16.8759569 L145.179957,16.8759569 L143.773856,15.4696272 L143.42233,15.1180447 L143.070805,14.7664623 L142.71928,14.4148799 L142.016229,14.0632974 L141.664704,14.0632974 L140.961653,13.3601326 L140.258603,12.6569677 L139.907077,12.6569677 C139.327065,12.295702 138.741109,11.9440713 138.149451,11.6022204 L137.797925,11.250638 L137.094875,10.8990555 L137.094875,10.5474731 L136.391824,10.1958906 L136.040299,10.1958906 L135.337248,9.49272577 L134.985723,9.49272577 L134.282672,9.14114334 L133.931147,8.7895609 L133.228096,8.43797846 L132.876571,8.43797846 C132.296212,8.0772811 131.710265,7.72565593 131.118944,7.38323116 L130.767419,7.38323116 L129.712843,6.68006628 L129.361318,6.68006628 L128.658267,6.32848385 L128.306742,6.32848385 L127.603691,5.97690141 L127.252166,5.62531898 L126.19759,5.27373654 L125.143014,4.9221541 L123.736913,4.57057167 L123.736913,4.21898923 L122.330811,3.8674068 C121.51473,3.61874739 120.694379,3.38432355 119.870134,3.16424192 C119.05386,2.91623349 118.233521,2.68181281 117.409457,2.46107705 L114.597254,2.10949462 L114.597254,1.75791218 L113.191153,1.75791218 L112.839628,1.40632974 L110.37895,1.05474731 L108.972849,1.05474731 L106.160647,0.703164872 L105.809121,0.703164872 L104.40302,0.351582436 L102.996919,0.351582436 C101.359498,0.195235166 99.7185793,0.0780076231 98.0755642,0 L96.6694629,0 L96.6694629,0 Z"
         id="path189" />
      <path
         stroke="#000"
         stroke-linecap="round"
         stroke-linejoin="round"
         stroke-width="2.787"
         d="M180.684014 58.0111019C179.277913 58.0111019 177.871812 58.3626844 176.817236 60.1205966L168.732153 66.4490804C169.971559 78.2627701 168.89695 90.2048148 165.568426 101.607324 178.926388 94.9272577 187.714521 84.7313671 187.01147 66.4490804 187.362995 63.2848385 184.550793 58.0111019 180.684014 58.0111019zM53.0803233 54.1436951C53.7833739 56.2531898 55.1894752 58.0111019 58.0016778 59.7690141 56.5955765 53.7921127 57.2986271 46.0572991 61.516931 41.135145M65.3837095 66.4490804C65.7352348 68.558575 64.6806588 70.3164872 63.2745575 71.3712345 65.3837095 72.4259818 67.4928614 72.4259818 69.250488 70.6680696M34.8010067 40.4319801C37.2616839 37.9709031 39.7223611 36.9161558 42.1830384 35.8614085 40.4254118 39.3772328 40.0738864 42.1898923 41.1284624 46.4088816M42.5345637 112.154797C44.6437156 108.638973 47.8074435 106.881061 51.674222 106.177896 48.8620194 109.69372 48.5104941 113.561127 49.9165954 117.780116M19.3338926 115.670621C24.2552471 114.264292 28.8250762 114.967457 32.6918547 116.373786M29.5281269 127.624424C31.9888041 126.921259 34.4494813 126.569677 37.2616839 127.624424"
         id="path191" />
    </g>
  </g>
</svg>
