<?xml version="1.0" encoding="UTF-8"?>
<svg version="1.1" viewBox="0 0 500 476" xmlns="http://www.w3.org/2000/svg">
<path d="m0 0h500v476h-500z" fill="#f0db4e"/>
<path d="m435.86 415.8h9.8778l2.0579-27.271 0.51448-12.862h-15.023l0.51448 12.862zm4.9389 25.821c5.865 0 10.289-4.0617 10.289-9.8641 0-5.7057-4.4244-9.6707-10.289-9.6707-5.8649 0-10.289 3.965-10.289 9.6707 0 5.8024 4.4244 9.8641 10.289 9.8641zm-81.863 13.539h30.457v-83.168h-30.457v7.5431h18.932v68.082h-18.932zm-51.818 0h30.457v-7.5432h-18.932v-68.082h18.932v-7.5431h-30.457zm128.13-118.86h11.113v-17.794h18.109v-10.058h-18.109v-17.794h-11.113v17.794h-18.109v10.058h18.109zm-65.606 26.401c13.376-11.121 21.711-26.014 21.711-44.195s-8.3344-33.074-21.711-44.195l-8.4373 6.286c12.244 11.218 17.492 22.629 17.492 37.909s-5.2476 26.691-17.492 37.909zm-42.764 0 8.4373-6.286c-12.244-11.218-17.492-22.629-17.492-37.909s5.2476-26.691 17.492-37.909l-8.4373-6.286c-13.376 11.121-21.711 26.014-21.711 44.195s8.3344 33.074 21.711 44.195z"/>
<UMSDataElement xmlns="" id="UMSSendDataEventElement"/></svg>